HIERARCHY
ROOT Hips
{
	OFFSET 0.000000 100.481300 0.000000
	CHANNELS 6 Xposition Yposition Zposition Xrotation Yrotation Zrotation
	JOINT Spine
	{
		OFFSET -0.279200 12.230698 -2.892100
		CHANNELS 3 Xrotation Yrotation Zrotation
		JOINT Spine1
		{
			OFFSET -0.325700 14.269203 -3.374200
			CHANNELS 3 Xrotation Yrotation Zrotation
			JOINT Spine2
			{
				OFFSET -0.372300 16.307602 -0.352600
				CHANNELS 3 Xrotation Yrotation Zrotation
				JOINT Neck
				{
					OFFSET -0.418800 17.814194 8.416900
					CHANNELS 3 Xrotation Yrotation Zrotation
					JOINT Head
					{
						OFFSET 0.000000 7.031097 3.806800
						CHANNELS 3 Xrotation Yrotation Zrotation
						JOINT HeadTop_End
						{
							OFFSET 0.000000 24.646606 12.978600
							CHANNELS 3 Xrotation Yrotation Zrotation
							End Site
							{
								OFFSET 0.000000 27.854965 0.000000
							}
						}
					}
				}
				JOINT LeftShoulder
				{
					OFFSET 16.952999 14.495407 -7.737500
					CHANNELS 3 Xrotation Yrotation Zrotation
					JOINT LeftArm
					{
						OFFSET 9.308998 -2.777710 0.208600
						CHANNELS 3 Xrotation Yrotation Zrotation
						JOINT LeftForeArm
						{
							OFFSET 29.972298 0.000000 0.000000
							CHANNELS 3 Xrotation Yrotation Zrotation
							JOINT LeftHand
							{
								OFFSET 26.026505 0.000000 0.000000
								CHANNELS 3 Xrotation Yrotation Zrotation
								JOINT LeftHandThumb1
								{
									OFFSET 12.240501 -7.147949 9.207150
									CHANNELS 3 Xrotation Yrotation Zrotation
									JOINT LeftHandThumb2
									{
										OFFSET 4.138618 -2.389435 2.389433
										CHANNELS 3 Xrotation Yrotation Zrotation
										JOINT LeftHandThumb3
										{
											OFFSET 2.726913 -1.574387 1.574386
											CHANNELS 3 Xrotation Yrotation Zrotation
											JOINT LeftHandThumb4
											{
												OFFSET 3.941010 -2.275345 2.275342
												CHANNELS 3 Xrotation Yrotation Zrotation
												End Site
												{
													OFFSET -0.005798 5.087799 0.009903
												}
											}
										}
									}
								}
								JOINT LeftHandIndex1
								{
									OFFSET 24.424698 -1.985611 5.953459
									CHANNELS 3 Xrotation Yrotation Zrotation
									JOINT LeftHandIndex2
									{
										OFFSET 6.426697 0.000000 0.000000
										CHANNELS 3 Xrotation Yrotation Zrotation
										JOINT LeftHandIndex3
										{
											OFFSET 5.337898 0.000000 0.000000
											CHANNELS 3 Xrotation Yrotation Zrotation
											JOINT LeftHandIndex4
											{
												OFFSET 4.409401 0.000000 0.000000
												CHANNELS 3 Xrotation Yrotation Zrotation
												End Site
												{
													OFFSET 0.000000 4.409363 0.014373
												}
											}
										}
									}
								}
								JOINT LeftHandMiddle1
								{
									OFFSET 23.810104 0.000000 0.000000
									CHANNELS 3 Xrotation Yrotation Zrotation
									JOINT LeftHandMiddle2
									{
										OFFSET 7.176498 0.000000 0.000000
										CHANNELS 3 Xrotation Yrotation Zrotation
										JOINT LeftHandMiddle3
										{
											OFFSET 6.774902 0.000000 0.000000
											CHANNELS 3 Xrotation Yrotation Zrotation
											JOINT LeftHandMiddle4
											{
												OFFSET 5.403328 0.000000 0.000000
												CHANNELS 3 Xrotation Yrotation Zrotation
												End Site
												{
													OFFSET -0.027702 5.403244 0.017414
												}
											}
										}
									}
								}
								JOINT LeftHandRing1
								{
									OFFSET 22.908401 -0.839279 -6.020567
									CHANNELS 3 Xrotation Yrotation Zrotation
									JOINT LeftHandRing2
									{
										OFFSET 6.337502 0.000000 0.000000
										CHANNELS 3 Xrotation Yrotation Zrotation
										JOINT LeftHandRing3
										{
											OFFSET 5.779297 0.000000 0.000000
											CHANNELS 3 Xrotation Yrotation Zrotation
											JOINT LeftHandRing4
											{
												OFFSET 4.965698 0.000000 0.000000
												CHANNELS 3 Xrotation Yrotation Zrotation
												End Site
												{
													OFFSET 0.000000 4.965668 0.016186
												}
											}
										}
									}
								}
								JOINT LeftHandPinky1
								{
									OFFSET 20.037003 -1.530319 -10.950146
									CHANNELS 3 Xrotation Yrotation Zrotation
									JOINT LeftHandPinky2
									{
										OFFSET 5.254700 0.000000 0.000000
										CHANNELS 3 Xrotation Yrotation Zrotation
										JOINT LeftHandPinky3
										{
											OFFSET 4.810204 0.000000 0.000000
											CHANNELS 3 Xrotation Yrotation Zrotation
											JOINT LeftHandPinky4
											{
												OFFSET 3.647202 0.000000 0.000000
												CHANNELS 3 Xrotation Yrotation Zrotation
												End Site
												{
													OFFSET 0.000000 3.647186 0.011889
												}
											}
										}
									}
								}
							}
						}
					}
				}
				JOINT RightShoulder
				{
					OFFSET -15.141001 14.495407 -7.737500
					CHANNELS 3 Xrotation Yrotation Zrotation
					JOINT RightArm
					{
						OFFSET -9.308998 -2.777710 0.208500
						CHANNELS 3 Xrotation Yrotation Zrotation
						JOINT RightForeArm
						{
							OFFSET -29.972300 0.000000 0.000000
							CHANNELS 3 Xrotation Yrotation Zrotation
							JOINT RightHand
							{
								OFFSET -26.026505 0.000000 0.000000
								CHANNELS 3 Xrotation Yrotation Zrotation
								JOINT RightHandThumb1
								{
									OFFSET -12.240601 -7.148026 9.207092
									CHANNELS 3 Xrotation Yrotation Zrotation
									JOINT RightHandThumb2
									{
										OFFSET -4.138618 -2.389435 2.389433
										CHANNELS 3 Xrotation Yrotation Zrotation
										JOINT RightHandThumb3
										{
											OFFSET -2.726974 -1.574417 1.574421
											CHANNELS 3 Xrotation Yrotation Zrotation
											JOINT RightHandThumb4
											{
												OFFSET -3.941010 -2.275345 2.275343
												CHANNELS 3 Xrotation Yrotation Zrotation
												End Site
												{
													OFFSET 0.005814 5.087799 0.009927
												}
											}
										}
									}
								}
								JOINT RightHandIndex1
								{
									OFFSET -24.424698 -1.985657 5.953444
									CHANNELS 3 Xrotation Yrotation Zrotation
									JOINT RightHandIndex2
									{
										OFFSET -6.426697 0.000000 0.000000
										CHANNELS 3 Xrotation Yrotation Zrotation
										JOINT RightHandIndex3
										{
											OFFSET -5.337898 0.000000 0.000000
											CHANNELS 3 Xrotation Yrotation Zrotation
											JOINT RightHandIndex4
											{
												OFFSET -4.409401 0.000000 0.000000
												CHANNELS 3 Xrotation Yrotation Zrotation
												End Site
												{
													OFFSET 0.000000 4.409363 0.014408
												}
											}
										}
									}
								}
								JOINT RightHandMiddle1
								{
									OFFSET -23.810097 0.000000 0.000000
									CHANNELS 3 Xrotation Yrotation Zrotation
									JOINT RightHandMiddle2
									{
										OFFSET -7.176498 0.000000 0.000000
										CHANNELS 3 Xrotation Yrotation Zrotation
										JOINT RightHandMiddle3
										{
											OFFSET -6.774902 0.000000 0.000000
											CHANNELS 3 Xrotation Yrotation Zrotation
											JOINT RightHandMiddle4
											{
												OFFSET -5.403328 0.000000 0.000000
												CHANNELS 3 Xrotation Yrotation Zrotation
												End Site
												{
													OFFSET 0.027702 5.403244 0.017457
												}
											}
										}
									}
								}
								JOINT RightHandRing1
								{
									OFFSET -22.908302 -0.839325 -6.020576
									CHANNELS 3 Xrotation Yrotation Zrotation
									JOINT RightHandRing2
									{
										OFFSET -6.337502 0.000000 0.000000
										CHANNELS 3 Xrotation Yrotation Zrotation
										JOINT RightHandRing3
										{
											OFFSET -5.779297 0.000000 0.000000
											CHANNELS 3 Xrotation Yrotation Zrotation
											JOINT RightHandRing4
											{
												OFFSET -4.965698 0.000000 0.000000
												CHANNELS 3 Xrotation Yrotation Zrotation
												End Site
												{
													OFFSET 0.000000 4.965668 0.016226
												}
											}
										}
									}
								}
								JOINT RightHandPinky1
								{
									OFFSET -20.037003 -1.530334 -10.950259
									CHANNELS 3 Xrotation Yrotation Zrotation
									JOINT RightHandPinky2
									{
										OFFSET -5.254700 0.000000 0.000000
										CHANNELS 3 Xrotation Yrotation Zrotation
										JOINT RightHandPinky3
										{
											OFFSET -4.810204 0.000000 0.000000
											CHANNELS 3 Xrotation Yrotation Zrotation
											JOINT RightHandPinky4
											{
												OFFSET -3.647202 0.000000 0.000000
												CHANNELS 3 Xrotation Yrotation Zrotation
												End Site
												{
													OFFSET 0.000000 3.647186 0.011917
												}
											}
										}
									}
								}
							}
						}
					}
				}
			}
		}
	}
	JOINT LeftUpLeg
	{
		OFFSET 15.427100 -6.655098 0.678600
		CHANNELS 3 Xrotation Yrotation Zrotation
		JOINT LeftLeg
		{
			OFFSET 4.081073 -39.591068 13.024000
			CHANNELS 3 Xrotation Yrotation Zrotation
			JOINT LeftFoot
			{
				OFFSET -4.081074 -37.707932 -15.979700
				CHANNELS 3 Xrotation Yrotation Zrotation
				JOINT LeftToeBase
				{
					OFFSET 5.346399 -15.068900 20.645000
					CHANNELS 3 Xrotation Yrotation Zrotation
					JOINT LeftToe_End
					{
						OFFSET 2.754700 0.931300 11.300900
						CHANNELS 3 Xrotation Yrotation Zrotation
						End Site
						{
							OFFSET 0.000000 11.669021 0.000000
						}
					}
				}
			}
		}
	}
	JOINT RightUpLeg
	{
		OFFSET -15.569500 -6.655098 0.678600
		CHANNELS 3 Xrotation Yrotation Zrotation
		JOINT RightLeg
		{
			OFFSET -4.081825 -39.591045 13.023800
			CHANNELS 3 Xrotation Yrotation Zrotation
			JOINT RightFoot
			{
				OFFSET 4.081824 -37.707954 -15.979600
				CHANNELS 3 Xrotation Yrotation Zrotation
				JOINT RightToeBase
				{
					OFFSET -5.346400 -15.068900 20.645000
					CHANNELS 3 Xrotation Yrotation Zrotation
					JOINT RightToe_End
					{
						OFFSET -2.754700 0.931300 11.300900
						CHANNELS 3 Xrotation Yrotation Zrotation
						End Site
						{
							OFFSET 0.000000 11.669021 0.000000
						}
					}
				}
			}
		}
	}
}
MOTION
Frames: 5
Frame Time: 0.033333
0.198383 90.112015 -2.435779 -2.248433 0.069040 -3.186650 1.857341 -1.594703 3.164115 3.579705 -2.533197 0.673625 3.579706 -2.533198 0.673625 -2.439481 1.360551 -0.177269 -0.112016 5.844295 -0.079477 0.000000 0.000000 -0.000000 0.442700 -8.235237 -13.151902 -0.624806 -8.808440 -59.472274 19.132381 -19.316362 6.827555 -5.405330 -8.531740 1.793604 25.111245 -2.687299 20.499081 9.304965 24.441197 -0.847856 -2.521160 -8.459258 -4.290577 0.000001 0.000001 -0.000002 0.599988 6.911488 -23.883887 2.733478 1.542677 -36.765969 4.400527 -2.444493 -4.361226 0.000003 -0.000002 -0.000002 0.976152 7.422054 -32.221732 5.809220 1.256783 -45.781119 5.743665 -0.254558 -5.489729 -0.000002 -0.000002 0.000003 -1.227815 6.340732 -44.477867 7.491178 2.055243 -50.574443 5.786972 -0.288646 -9.889680 -0.000001 -0.000002 0.000000 -5.698669 1.174832 -43.952749 10.001157 3.459241 -50.341974 10.463892 6.463301 -29.880411 0.000001 -0.000000 -0.000001 0.662848 2.643784 20.148732 -3.947858 -2.327091 62.260309 16.631070 11.939501 -3.785998 -4.421764 12.103416 -12.551285 3.824837 -12.345967 -1.042561 4.523897 -9.504798 0.488638 3.860022 -12.119580 -3.867357 -0.000002 -0.000001 0.000001 3.545366 -9.668652 69.326680 8.886355 -3.241704 112.372554 5.374737 0.824721 34.768139 0.000002 0.000001 -0.000000 5.660025 -9.815690 93.151698 8.809074 -2.682468 83.366304 6.985503 2.802874 35.996477 0.000001 -0.000001 -0.000000 4.831723 -12.380567 97.852493 10.912794 -3.225618 91.663502 8.357672 3.303297 55.647102 0.000000 0.000001 -0.000005 0.269995 -10.740412 93.149772 10.737841 -3.968362 60.274302 11.067063 -1.040083 24.703585 0.000001 0.000001 0.000002 -16.887996 2.829999 4.340163 55.952435 17.719041 -0.344845 4.738649 0.888936 3.779993 -21.244083 5.141641 -16.144771 -0.000000 -0.000001 -0.000000 -14.743832 -3.505420 8.090623 28.298514 -6.533083 -0.240661 -13.304627 0.109084 -4.028022 3.382034 0.000002 0.000000 0.000000 -0.000000 -0.000000 
0.233490 90.996765 2.770917 -0.760677 -1.317821 -1.781111 1.635952 -0.977660 2.592060 3.192396 -1.986971 0.372388 3.192395 -1.986970 0.372388 -3.307115 2.251972 -0.590813 -0.111397 8.351915 -1.972068 0.000000 0.000000 0.000000 0.453644 -6.865033 -13.602440 2.120171 -7.957491 -60.494425 20.878787 -18.418034 7.161230 -5.441722 -8.696556 1.497136 25.111249 -2.687300 20.499078 9.304966 24.441198 -0.847854 -2.521163 -8.459262 -4.290578 -0.000000 -0.000000 0.000004 0.599996 6.911486 -23.883887 2.733478 1.542678 -36.765969 4.400525 -2.444498 -4.361229 0.000003 0.000001 -0.000002 0.976159 7.422052 -32.221732 5.809221 1.256783 -45.781119 5.743664 -0.254561 -5.489730 0.000000 -0.000003 0.000001 -1.227811 6.340729 -44.477867 7.491181 2.055244 -50.574440 5.786971 -0.288641 -9.889678 0.000001 0.000001 0.000000 -5.698664 1.174830 -43.952756 10.001163 3.459242 -50.341971 10.463892 6.463303 -29.880411 0.000000 -0.000001 -0.000001 0.618890 3.005072 19.726910 -4.385746 -1.735787 62.066100 16.935355 11.699248 -3.788181 -4.278536 12.709741 -13.113094 3.824837 -12.345967 -1.042563 4.523897 -9.504800 0.488635 3.860022 -12.119580 -3.867355 -0.000002 0.000000 0.000003 3.545365 -9.668653 69.326686 8.886360 -3.241705 112.372554 5.374735 0.824721 34.768142 0.000001 0.000001 -0.000001 5.660024 -9.815688 93.151698 8.809073 -2.682470 83.366304 6.985502 2.802872 35.996477 0.000000 -0.000001 -0.000001 4.831721 -12.380564 97.852493 10.912789 -3.225616 91.663502 8.357675 3.303296 55.647102 -0.000001 0.000000 -0.000001 0.269994 -10.740411 93.149772 10.737840 -3.968362 60.274302 11.067068 -1.040084 24.703582 0.000000 0.000000 0.000003 -23.390138 2.698680 1.017371 49.456703 16.578126 -0.003011 0.013498 0.802978 5.365599 -10.869006 1.711362 -11.106336 -0.000000 -0.000000 0.000000 -11.771257 -3.919093 6.919809 26.756889 -4.050070 -0.169409 -15.052977 0.308902 -5.263802 2.357837 -0.009698 -0.033859 0.000000 0.000000 -0.000000 
0.262443 92.016907 7.623231 0.907702 -2.083006 -0.341124 1.400618 -0.518510 1.725393 2.766013 -1.526017 0.164288 2.766016 -1.526018 0.164289 -4.376985 3.168731 -0.754185 0.241701 11.102228 -4.074248 0.000000 -0.000001 0.000000 0.481982 -5.486107 -14.011147 4.981210 -6.717200 -61.607514 22.463937 -17.621384 7.452983 -5.463470 -8.855692 1.441775 25.111240 -2.687300 20.499081 9.304966 24.441195 -0.847854 -2.521162 -8.459264 -4.290579 -0.000002 -0.000000 0.000001 0.599984 6.911488 -23.883889 2.733483 1.542679 -36.765969 4.400527 -2.444494 -4.361229 -0.000001 -0.000001 0.000001 0.976147 7.422054 -32.221735 5.809221 1.256781 -45.781119 5.743667 -0.254558 -5.489733 0.000000 -0.000001 -0.000000 -1.227817 6.340732 -44.477871 7.491181 2.055243 -50.574443 5.786969 -0.288651 -9.889678 0.000000 -0.000001 0.000000 -5.698669 1.174832 -43.952745 10.001158 3.459241 -50.341971 10.463889 6.463300 -29.880411 0.000001 0.000001 -0.000001 0.602859 3.105006 19.434603 -4.654900 -0.979205 61.842363 16.077227 11.511625 -3.528030 -4.042492 13.685414 -13.862911 3.824836 -12.345965 -1.042562 4.523896 -9.504797 0.488642 3.860022 -12.119579 -3.867354 0.000000 -0.000000 0.000002 3.545367 -9.668654 69.326686 8.886357 -3.241703 112.372560 5.374737 0.824723 34.768142 -0.000002 -0.000000 0.000001 5.660025 -9.815688 93.151698 8.809077 -2.682469 83.366304 6.985504 2.802874 35.996483 0.000000 -0.000000 0.000000 4.831723 -12.380567 97.852493 10.912792 -3.225619 91.663502 8.357672 3.303297 55.647102 -0.000000 -0.000000 0.000001 0.269995 -10.740413 93.149778 10.737842 -3.968363 60.274302 11.067066 -1.040085 24.703580 0.000000 0.000001 0.000000 -28.328508 2.826770 -2.087442 37.474038 13.376437 0.342738 2.157656 -0.137193 8.257659 -3.338936 0.385146 -7.017846 -0.000001 0.000001 -0.000000 -8.921292 -3.919583 5.726781 24.495516 -2.192270 -0.140378 -16.570993 0.686755 -6.568162 0.715310 -0.009799 0.749511 0.000000 -0.000000 -0.000000 
0.413501 93.337265 11.785824 2.187937 -2.255644 0.920547 1.212523 -0.249021 0.518615 2.420066 -1.010080 0.144315 2.420065 -1.010080 0.144314 -5.005458 4.013278 -0.513990 0.873016 13.930282 -6.534504 0.000000 0.000001 -0.000000 0.523593 -4.184032 -14.328063 7.897223 -5.232856 -62.824381 24.005084 -16.830179 7.704282 -5.492619 -9.038493 1.315168 25.111250 -2.687298 20.499085 9.304966 24.441195 -0.847856 -2.521159 -8.459265 -4.290573 0.000002 0.000001 0.000001 0.599993 6.911488 -23.883887 2.733481 1.542678 -36.765969 4.400532 -2.444495 -4.361227 -0.000001 -0.000001 0.000001 0.976157 7.422054 -32.221735 5.809215 1.256782 -45.781122 5.743668 -0.254558 -5.489730 0.000000 -0.000001 0.000002 -1.227808 6.340733 -44.477871 7.491178 2.055244 -50.574443 5.786970 -0.288646 -9.889678 -0.000000 -0.000001 0.000000 -5.698665 1.174832 -43.952749 10.001160 3.459242 -50.341974 10.463891 6.463298 -29.880408 0.000000 -0.000000 -0.000000 0.606550 2.995928 19.239494 -4.783038 -0.131635 61.593997 14.387536 11.344186 -3.087107 -3.716526 14.979291 -14.717611 3.824835 -12.345965 -1.042565 4.523895 -9.504798 0.488641 3.860022 -12.119580 -3.867355 0.000001 0.000000 -0.000005 3.545366 -9.668652 69.326686 8.886357 -3.241703 112.372560 5.374736 0.824720 34.768139 0.000000 0.000000 -0.000001 5.660025 -9.815688 93.151691 8.809075 -2.682470 83.366304 6.985503 2.802873 35.996480 0.000000 -0.000002 -0.000000 4.831720 -12.380564 97.852493 10.912793 -3.225620 91.663495 8.357673 3.303298 55.647105 -0.000001 0.000000 -0.000001 0.269995 -10.740412 93.149772 10.737836 -3.968361 60.274302 11.067066 -1.040083 24.703587 -0.000001 -0.000003 -0.000002 -31.120224 3.276846 -4.925116 24.358861 9.749868 0.671504 2.946363 -0.340021 8.598330 0.203625 -0.000001 0.000001 0.000000 0.000001 0.000000 -5.654307 -3.274532 4.679249 21.290369 -1.534112 -0.059387 -17.907544 0.971035 -8.194667 0.404374 -0.003251 0.431553 -0.000000 -0.000000 0.000000 
0.746873 94.784973 15.184604 2.883504 -1.818300 1.923143 1.091945 -0.116258 -0.879975 2.189525 -0.379949 0.289876 2.189524 -0.379951 0.289876 -5.224118 4.726189 0.030314 1.941420 16.577086 -9.380678 -0.000000 0.000000 -0.000000 0.570445 -3.045669 -14.524105 10.656471 -3.717393 -64.098122 25.571866 -15.933638 7.876811 -5.548039 -9.268253 0.883277 25.111249 -2.687300 20.499081 9.304958 24.441198 -0.847854 -2.521163 -8.459257 -4.290573 0.000000 0.000001 0.000001 0.599992 6.911489 -23.883891 2.733484 1.542678 -36.765969 4.400527 -2.444496 -4.361228 -0.000000 0.000003 -0.000001 0.976154 7.422056 -32.221735 5.809219 1.256783 -45.781122 5.743667 -0.254565 -5.489730 0.000000 -0.000005 0.000001 -1.227810 6.340733 -44.477867 7.491172 2.055243 -50.574443 5.786971 -0.288645 -9.889678 -0.000001 -0.000003 0.000000 -5.698663 1.174831 -43.952745 10.001158 3.459240 -50.341967 10.463892 6.463300 -29.880408 0.000000 -0.000000 0.000000 0.625899 2.714091 19.131568 -4.796132 0.630921 61.306590 12.424637 11.120242 -2.585210 -3.326962 16.469676 -15.547667 3.824835 -12.345965 -1.042564 4.523897 -9.504797 0.488638 3.860022 -12.119579 -3.867353 0.000000 -0.000001 -0.000004 3.545366 -9.668653 69.326680 8.886354 -3.241704 112.372560 5.374733 0.824718 34.768142 -0.000000 0.000000 -0.000001 5.660024 -9.815690 93.151698 8.809077 -2.682469 83.366304 6.985502 2.802871 35.996477 -0.000001 -0.000001 -0.000000 4.831722 -12.380565 97.852487 10.912791 -3.225616 91.663502 8.357671 3.303297 55.647105 0.000000 0.000000 -0.000000 0.269995 -10.740413 93.149778 10.737839 -3.968361 60.274302 11.067067 -1.040086 24.703582 0.000001 0.000002 0.000002 -31.985554 3.492624 -7.119020 11.439391 8.333458 0.566213 3.696604 -0.119516 6.033116 -2.791296 -0.000001 0.000000 -0.000001 -0.000000 -0.000000 -1.974715 -2.407037 3.635387 17.374183 -2.681654 -0.094243 -18.501743 0.946598 -9.420923 -0.512395 0.000305 -0.279236 0.000000 0.000000 -0.000000 
